<svg xmlns="http://www.w3.org/2000/svg" width="383" height="420" fill="none"><g clip-path="url(#a)"><path fill="#344A41" d="M199.121 159.783C198.762 143.009 212.148 129 228.79 129h45.03c16.895 0 30.477 14.235 30.093 31.262-.534 23.669 25.05 39.005 45.151 26.76 14.293-8.707 32.894-3.861 41.212 10.738l22.584 39.636c8.368 14.685 2.941 33.439-11.947 41.285-20.934 11.032-21.232 41.127-.522 52.579l.946.523c14.765 8.164 20.039 26.934 11.714 41.69l-22.685 40.213c-8.324 14.756-27.263 19.502-41.562 10.537-20.001-12.542-45.996 2.352-45.206 26.084.558 16.783-12.787 30.693-29.444 30.693h-44.677c-16.96 0-30.546-14.229-29.984-31.317.788-23.957-25.133-39.334-45.439-26.861-14.316 8.794-33.007 4.006-41.421-10.612l-22.36-38.849c-8.45-14.679-3.073-33.62 11.647-41.858 20.601-11.531 20.713-41.729-.114-52.839-14.754-7.87-20.171-26.452-11.988-41.117l22.996-41.215c8.239-14.767 27.07-19.56 41.276-10.506 19.789 12.612 45.535-2.447 45.031-26.043Z"/></g><defs><clipPath id="a"><path fill="#fff" d="M0 0h383v420H0z"/></clipPath></defs></svg>