<svg xmlns="http://www.w3.org/2000/svg" width="520" height="87" fill="none"><path fill="#EAEBDB" fill-rule="evenodd" d="M68.267 26.311c3.388 2.282 8.11-.135 8.087-4.134-.022-2.191-1.468-4.043-3.66-4.699-1.468-.429-1.83-.429-3.298.09-2.146.746-3.275 2.328-3.298 4.654-.022 1.762.7 3.118 2.169 4.09Zm-23.81-4.471c1.898 1.22 4.902 2.078 7.251 2.078 2.62-.023 6.484-1.4 8.268-2.96 1.378-1.197 2.734-3.23 3.321-4.879.723-2.123.723-5.399-.022-7.567-1.356-4.044-4.541-7.071-8.472-8.088-2.304-.587-4.314-.565-6.46.068-2.418.723-3.909 1.626-5.445 3.253-3.546 3.818-4.54 9.51-2.372 13.78.723 1.446 2.53 3.434 3.931 4.315Zm9.217-2.485c-.7 1.378-2.35 1.604-3.57.52-1.671-1.492-.429-4.044 1.83-3.75.43.045.994.316 1.288.587.723.677.904 1.762.452 2.643Zm3.795-2.53c-1.468.27-3.005-1.22-2.688-2.62.361-1.627 2.71-2.395 3.84-1.266 1.4 1.4.768 3.524-1.152 3.886Zm-.565-10.618c.587.497.7.746.7 1.559 0 1.333-.677 2.123-1.965 2.304-.88.113-1.039.045-1.762-.678-.61-.61-.79-.97-.79-1.626 0-1.898 2.304-2.846 3.817-1.559Zm-6.348 4.315c.904-.542 1.582-.474 2.327.271.474.497.655.881.655 1.491 0 1.672-2.01 2.575-3.117 1.4-1.107-1.197-1.062-2.416.135-3.162Zm-4.495-4.247c.813-.813 2.146-.904 3.027-.203a2.305 2.305 0 0 1 .813 2.394c-.293 1.062-.994 1.56-2.168 1.56-.859 0-1.107-.114-1.672-.746-.904-.994-.904-2.101 0-3.005Zm-2.169 8.087c.249-1.897 2.327-2.643 3.773-1.355.43.407.745.926.813 1.446.18 1.152-.745 2.213-2.1 2.394-.882.113-1.04.045-1.785-.7-.746-.745-.814-.904-.7-1.785ZM30.858 26.99c1.988.566 3.908-.044 5.354-1.716 1.332-1.559 1.536-3.66.52-5.625-1.04-1.988-3.818-2.937-6.19-2.1-4.744 1.693-4.54 8.019.316 9.442ZM14.66 63.314c3.05 3.118 4.858 4.563 9.67 7.726 2.123 1.4 4.11 2.892 4.427 3.298.836 1.152 1.04 1.966 1.197 5.377l.158 3.14 1.265.451c3.728 1.356 9.036 2.53 13.961 3.073 1.762.18 3.434.339 3.682.339h.474l-.09-10.46c-.09-11.747-.045-11.453-1.852-15.225-1.74-3.57-4.767-6.868-10.414-11.363-3.93-3.118-3.818-3.005-7.206-7.252-3.208-4.02-5.783-6.754-6.935-7.342-1.514-.79-3.389-.293-3.705.95-.317 1.219.429 2.642 4.88 9.464 3.343 5.151 5.172 9.127 5.263 11.499l.045 1.152-.836.068c-1.536.135-3.84-1.446-4.79-3.298-.18-.34-.632-1.424-1.016-2.418-.835-2.19-1.49-2.869-4.653-4.924-2.26-1.446-4.066-3.118-4.699-4.36-.452-.904-1.559-3.705-3.953-10.143-2.44-6.529-3.953-10.143-4.676-11.092-.881-1.175-2.304-1.672-3.411-1.22-.271.09-.7.474-.972.813-.406.52-.474.904-.474 2.937 0 5.264 1.875 15.452 3.998 21.777 1.988 5.85 5.919 12.131 10.663 17.033Zm86.362-42.559c-.655 0-1.333.18-1.785.452-.406.226-.88.655-1.061.948-.542.814-2.44 5.535-5.377 13.284-1.468 3.908-2.936 7.522-3.23 8.02-.768 1.287-2.395 2.778-4.834 4.427-2.688 1.807-3.457 2.62-4.112 4.224-1.558 3.93-2.733 5.354-4.992 6.032-2.033.587-2.35-.023-1.559-2.937.859-3.027 1.627-4.518 6.01-11.408 3.704-5.851 4.11-6.71 3.704-7.884-.136-.362-.565-.813-.994-1.062-.655-.339-.88-.361-1.672-.135-1.739.542-4.337 3.117-8.2 8.2-2.462 3.23-2.756 3.524-6.415 6.416-5.512 4.382-8.494 7.522-10.437 10.956-.88 1.559-1.965 4.834-2.259 6.777-.135.836-.226 5.376-.203 10.504l.045 9.036 1.807-.067c4.18-.136 9.985-1.265 15.158-2.892l2.53-.79.09-3.208c.159-4.925.294-5.128 5.716-8.675 4.518-2.982 6.89-4.857 9.488-7.545 3.66-3.773 6.505-7.907 8.787-12.673 1.581-3.253 2.056-4.586 3.05-8.268 1.513-5.58 2.62-12.177 2.869-17.214l.158-3.05-.633-.745c-.519-.633-.745-.723-1.649-.723Z" clip-rule="evenodd"/><path fill="#EAEBDB" fill-rule="evenodd" d="M23.674 31.01c3.276 1.65 5.535 3.795 9.262 8.765 1.243 1.65 2.892 3.615 3.682 4.36 1.423 1.356 4.112 3.502 4.36 3.502.61 0-.632-10.008-1.694-13.735-.226-.813-.384-1.514-.339-1.581.158-.136 2.236 3.84 3.005 5.715 1.039 2.598 1.468 4.97 1.558 8.562l.09 3.14 2.44 2.394c1.65 1.627 2.96 3.208 4.067 4.835.903 1.355 1.626 2.349 1.626 2.236 0-.723 3.072-4.744 5.422-7.139l2.643-2.665.135-3.434c.136-4.202.655-6.235 2.643-10.188 1.943-3.93 2.079-3.999 1.243-.655-.95 3.795-1.469 7.41-1.469 10.256v2.281l1.65-1.287c2.394-1.92 3.885-3.389 5.285-5.286 2.892-3.886 3.366-4.473 4.902-6.077 1.695-1.74 4.157-3.524 5.874-4.225.565-.248 1.039-.564 1.039-.745 0-.271-1.988-3.637-2.146-3.637-.045 0-.61.497-1.265 1.13-1.604 1.536-2.846 2.213-4.79 2.62-3.817.813-7.748-1.175-9.736-4.902-.36-.655-.677-1.243-.722-1.288-.023-.045-.836.452-1.83 1.107a64 64 0 0 1-1.83 1.243c-.023 0 .407.926.994 2.033 1.04 2.01 1.04 2.01.79 3.32-.541 2.982-2.823 6.168-5.127 7.184-3.321 1.491-7.636.633-10.053-1.988-1.197-1.31-2.462-3.976-2.62-5.58-.136-1.378.09-2.168 1.107-3.704.339-.543.632-1.017.632-1.062 0-.113-3.343-2.598-3.479-2.598-.067 0-.452.632-.858 1.4-1.943 3.638-5.309 5.422-9.24 4.88-1.807-.248-3.659-1.242-5.172-2.778l-1.22-1.243-.768 1.084c-.723.994-1.627 2.598-1.627 2.847 0 .067.678.474 1.536.903Z" clip-rule="evenodd"/><path fill="#EAEBDB" fill-rule="evenodd" d="M49.856 26.857c-.994.293-2.146 1.287-2.643 2.281-2.169 4.247 1.875 8.697 6.37 6.98 5.309-1.988 3.908-9.555-1.762-9.465-.722 0-1.626.113-1.965.204Z" clip-rule="evenodd"/><path fill="#FDDB22" d="M142.98 86.696c-4.369 0-8.365-1.102-11.986-3.306-3.582-2.205-6.436-5.157-8.561-8.857-2.086-3.74-3.129-7.892-3.129-12.458l.118-37.728c0-4.487 1.023-8.542 3.07-12.163 2.047-3.66 4.861-6.593 8.443-8.797C134.556 1.143 138.571.02 142.98.02c4.487 0 8.482 1.083 11.985 3.248 3.543 2.165 6.357 5.097 8.443 8.797 2.126 3.66 3.189 7.754 3.189 12.281v5.55c0 .315-.158.472-.473.472h-13.579c-.315 0-.473-.157-.473-.472v-5.55c0-2.677-.866-4.98-2.598-6.908-1.731-1.929-3.896-2.893-6.494-2.893-2.874 0-5.078.984-6.613 2.952-1.535 1.968-2.303 4.251-2.303 6.849v37.728c0 2.952.866 5.373 2.598 7.262 1.732 1.85 3.838 2.775 6.318 2.775 2.598 0 4.763-1.023 6.494-3.07 1.732-2.086 2.598-4.408 2.598-6.967v-5.609c0-.315.158-.472.473-.472h13.698c.314 0 .472.157.472.472v5.61c0 4.526-1.063 8.659-3.188 12.398-2.165 3.7-5.019 6.672-8.562 8.915-3.542 2.205-7.537 3.307-11.985 3.307Zm25.099-1.771 14.997-83.073c.079-.315.276-.473.591-.473h17.535c.315 0 .512.158.591.473l14.406 83.073c.039.393-.118.59-.472.59h-13.403c-.394 0-.61-.197-.649-.59l-1.299-8.857h-16.473l-1.299 8.857c-.04.393-.236.59-.591.59h-13.461c-.315 0-.473-.197-.473-.59Zm24.916-55.736-.708-4.488-.532 4.488-5.431 33.949h11.631l-4.96-33.95Zm41.573 56.326H220.87c-.315 0-.472-.197-.472-.59l.236-83.073c0-.315.157-.473.472-.473h24.444c4.369 0 8.384 1.063 12.044 3.189 3.661 2.125 6.574 4.979 8.739 8.56 2.204 3.583 3.306 7.637 3.306 12.164 0 2.952-.453 5.628-1.358 8.03-.905 2.4-1.968 4.428-3.188 6.08-1.181 1.654-2.263 2.874-3.248 3.661 4.37 4.842 6.554 10.53 6.554 17.064l.118 24.798c0 .393-.197.59-.59.59h-13.698c-.315 0-.472-.118-.472-.354V60.127c0-2.913-1.024-5.432-3.071-7.558-2.046-2.125-4.566-3.188-7.557-3.188h-7.971l-.118 35.544c0 .393-.157.59-.472.59Zm10.982-69.67h-10.392v19.012h10.392c2.48 0 4.684-.925 6.613-2.775 1.968-1.85 2.952-4.114 2.952-6.79 0-2.559-.945-4.763-2.834-6.613-1.89-1.89-4.133-2.834-6.731-2.834Zm69.381 69.67h-39.086c-.315 0-.472-.197-.472-.59l.118-83.073c0-.315.157-.473.472-.473h38.85c.315 0 .473.197.473.59v13.522c0 .315-.158.472-.473.472h-24.798v18.894h24.798c.315 0 .473.157.473.472l.118 13.698c0 .315-.158.472-.473.472h-24.916v21.137h24.916c.315 0 .473.197.473.59v13.817c0 .315-.158.472-.473.472Zm47.418 0h-39.086c-.315 0-.472-.197-.472-.59l.118-82.955c0-.394.196-.59.59-.59h13.462c.393 0 .59.196.59.59l-.118 68.666h24.916c.394 0 .59.197.59.59v13.699c0 .393-.196.59-.59.59Zm27.52 1.181c-4.29 0-8.246-1.102-11.867-3.306-3.582-2.205-6.475-5.137-8.679-8.798-2.165-3.7-3.248-7.754-3.248-12.163l.118-38.318c0-4.487 1.083-8.522 3.248-12.104 2.125-3.621 4.999-6.514 8.62-8.68 3.621-2.203 7.557-3.306 11.808-3.306 4.409 0 8.365 1.083 11.868 3.248 3.542 2.165 6.377 5.077 8.502 8.738 2.165 3.621 3.247 7.656 3.247 12.104l.118 38.318c0 4.409-1.062 8.444-3.188 12.104-2.165 3.7-5.038 6.652-8.62 8.856-3.582 2.205-7.557 3.307-11.927 3.307Zm0-14.584c2.441 0 4.566-.984 6.377-2.952 1.811-2.007 2.716-4.25 2.716-6.73l-.118-38.32c0-2.676-.846-4.94-2.539-6.79-1.693-1.85-3.838-2.774-6.436-2.774-2.479 0-4.605.905-6.376 2.716-1.772 1.81-2.657 4.093-2.657 6.849v38.318c0 2.638.885 4.92 2.657 6.85 1.771 1.889 3.897 2.833 6.376 2.833Zm51.905 14.584c-4.29 0-8.246-1.102-11.867-3.306-3.582-2.205-6.475-5.137-8.679-8.798-2.165-3.7-3.248-7.754-3.248-12.163l.118-38.318c0-4.487 1.083-8.522 3.248-12.104 2.125-3.621 4.999-6.514 8.62-8.68 3.621-2.203 7.557-3.306 11.808-3.306 4.409 0 8.365 1.083 11.868 3.248 3.542 2.165 6.376 5.077 8.502 8.738 2.165 3.621 3.247 7.656 3.247 12.104l.118 38.318c0 4.409-1.062 8.444-3.188 12.104-2.165 3.7-5.038 6.652-8.62 8.856-3.582 2.205-7.558 3.307-11.927 3.307Zm0-14.584c2.441 0 4.566-.984 6.377-2.952 1.811-2.007 2.716-4.25 2.716-6.73l-.118-38.32c0-2.676-.847-4.94-2.539-6.79-1.693-1.85-3.838-2.774-6.436-2.774-2.479 0-4.605.905-6.376 2.716-1.772 1.81-2.657 4.093-2.657 6.849v38.318c0 2.638.885 4.92 2.657 6.85 1.771 1.889 3.897 2.833 6.376 2.833Zm43.698 13.403h-13.579c-.394 0-.591-.197-.591-.59l.236-83.073c0-.315.158-.473.473-.473h23.262c7.4 0 13.246 2.264 17.536 6.79 4.33 4.488 6.495 10.608 6.495 18.363 0 5.668-1.122 10.608-3.366 14.82-2.283 4.172-5.235 7.4-8.856 9.682-3.621 2.283-7.558 3.425-11.809 3.425h-9.21v30.466c0 .393-.197.59-.591.59Zm9.801-69.788-9.21.118v23.971h9.21c2.559 0 4.783-1.22 6.672-3.66 1.89-2.48 2.834-5.688 2.834-9.624 0-3.15-.846-5.727-2.539-7.735-1.692-2.047-4.014-3.07-6.967-3.07Z"/></svg>