<svg xmlns="http://www.w3.org/2000/svg" width="148" height="24" fill="none"><path fill="#EAEBDB" fill-rule="evenodd" d="M18.894 7.282c.937.632 2.244-.037 2.238-1.144-.007-.606-.407-1.119-1.013-1.3-.406-.12-.506-.12-.913.025-.594.206-.906.644-.913 1.288-.006.487.194.862.6 1.131Zm-6.59-1.238c.525.338 1.357.575 2.007.575.725-.006 1.794-.387 2.288-.819a3.59 3.59 0 0 0 .92-1.35c.2-.588.2-1.494-.007-2.094-.375-1.12-1.257-1.957-2.345-2.239-.637-.162-1.194-.156-1.788.02-.669.2-1.081.45-1.506.9-.982 1.056-1.257 2.632-.657 3.813.2.4.7.95 1.088 1.194Zm2.55-.687c-.193.38-.65.443-.987.143-.463-.412-.119-1.119.506-1.037a.72.72 0 0 1 .357.162c.2.188.25.488.125.732Zm1.051-.7c-.406.074-.831-.338-.744-.726.1-.45.75-.663 1.063-.35.388.388.212.975-.319 1.075Zm-.156-2.94c.162.138.194.207.194.432 0 .37-.188.588-.544.638-.244.031-.288.012-.488-.188-.169-.168-.219-.268-.219-.45 0-.525.638-.787 1.057-.431Zm-1.757 1.195c.25-.15.438-.131.644.075.131.138.181.244.181.413 0 .462-.556.712-.863.387-.306-.331-.293-.669.038-.875Zm-1.244-1.175a.64.64 0 0 1 .838-.057.64.64 0 0 1 .225.663c-.082.294-.275.432-.6.432-.238 0-.307-.032-.463-.207-.25-.275-.25-.581 0-.831Zm-.6 2.238c.068-.525.644-.732 1.044-.375a.704.704 0 0 1 .225.4c.05.319-.207.613-.582.663-.244.03-.287.012-.494-.194-.206-.207-.225-.25-.193-.494ZM8.54 7.47c.55.156 1.082-.013 1.482-.475.369-.432.425-1.013.144-1.557-.288-.55-1.057-.813-1.713-.582-1.313.47-1.257 2.22.087 2.614ZM4.058 17.523c.844.863 1.344 1.263 2.675 2.138.588.388 1.138.8 1.226.913.231.319.287.544.331 1.488l.044.869.35.125c1.032.375 2.5.7 3.864.85.487.05.95.094 1.019.094h.131l-.025-2.895c-.025-3.25-.012-3.17-.513-4.213-.481-.988-1.319-1.901-2.882-3.145-1.088-.863-1.056-.832-1.994-2.007-.888-1.113-1.6-1.87-1.92-2.032-.418-.219-.937-.081-1.025.263-.087.337.119.731 1.35 2.62.926 1.425 1.432 2.525 1.457 3.181l.013.32-.231.018c-.426.038-1.063-.4-1.326-.913a9.171 9.171 0 0 1-.281-.669c-.232-.606-.413-.794-1.288-1.363-.625-.4-1.126-.862-1.3-1.206-.126-.25-.432-1.026-1.095-2.807-.675-1.807-1.094-2.808-1.294-3.07C1.1 5.757.706 5.619.4 5.744c-.075.025-.194.131-.269.225C.02 6.113 0 6.22 0 6.782c0 1.457.519 4.276 1.107 6.027.55 1.62 1.638 3.357 2.95 4.714ZM27.959 5.744c-.181 0-.369.05-.494.125a.939.939 0 0 0-.294.263c-.15.225-.675 1.532-1.488 3.676-.406 1.082-.813 2.082-.894 2.22-.212.356-.663.768-1.338 1.225-.744.5-.956.725-1.138 1.169-.431 1.088-.756 1.482-1.381 1.67-.563.162-.65-.007-.432-.813.238-.838.45-1.25 1.663-3.158 1.026-1.62 1.138-1.857 1.026-2.182a.682.682 0 0 0-.275-.294c-.182-.093-.244-.1-.463-.037-.482.15-1.2.863-2.27 2.27-.681.893-.762.975-1.775 1.775-1.526 1.213-2.35 2.082-2.889 3.032-.243.431-.543 1.338-.625 1.876-.037.231-.062 1.488-.056 2.907l.012 2.5.5-.018c1.157-.038 2.764-.35 4.196-.8l.7-.22.025-.887c.044-1.363.081-1.42 1.582-2.4 1.25-.826 1.907-1.345 2.626-2.089a13.005 13.005 0 0 0 2.432-3.507c.437-.9.569-1.27.844-2.288.419-1.545.725-3.37.794-4.764l.043-.844-.175-.207c-.143-.175-.206-.2-.456-.2Z" clip-rule="evenodd"/><path fill="#EAEBDB" fill-rule="evenodd" d="M6.552 8.583c.907.456 1.532 1.05 2.563 2.425.344.457.8 1 1.02 1.207.393.375 1.137.97 1.206.97.169 0-.175-2.77-.469-3.802-.062-.225-.106-.419-.094-.438.044-.037.62 1.063.832 1.582.288.719.406 1.375.431 2.37l.025.868.676.663c.456.45.819.888 1.125 1.338.25.375.45.65.45.62 0-.201.85-1.314 1.5-1.977l.732-.737.038-.95c.037-1.163.18-1.726.731-2.82.538-1.088.575-1.107.344-.182-.263 1.05-.406 2.051-.406 2.839v.631l.456-.356c.663-.531 1.075-.938 1.463-1.463.8-1.075.931-1.238 1.357-1.682.468-.481 1.15-.975 1.625-1.169.156-.069.288-.156.288-.206 0-.075-.55-1.007-.594-1.007-.013 0-.17.138-.35.313-.444.425-.788.612-1.326.725-1.056.225-2.144-.325-2.694-1.357-.1-.181-.188-.344-.2-.356-.007-.013-.232.125-.507.306a17.64 17.64 0 0 1-.506.344c-.007 0 .112.257.275.563.287.556.287.556.219.919-.15.825-.782 1.707-1.42 1.988-.919.413-2.113.175-2.782-.55-.331-.363-.681-1.1-.725-1.544-.038-.382.025-.6.306-1.026.094-.15.175-.281.175-.294 0-.03-.925-.719-.962-.719-.02 0-.125.176-.238.388-.538 1.007-1.47 1.5-2.557 1.35-.5-.068-1.013-.343-1.432-.768l-.337-.344-.213.3c-.2.275-.45.719-.45.788 0 .018.188.13.425.25Z" clip-rule="evenodd"/><path fill="#EAEBDB" fill-rule="evenodd" d="M13.798 7.432c-.275.081-.594.357-.731.632-.6 1.175.519 2.407 1.763 1.932 1.469-.55 1.081-2.645-.488-2.62-.2 0-.45.031-.544.056Z" clip-rule="evenodd"/><path fill="#FDDB22" d="M43.16 24a6.285 6.285 0 0 1-3.326-.916 6.826 6.826 0 0 1-2.375-2.452c-.58-1.035-.869-2.185-.869-3.45l.033-10.446c0-1.243.284-2.365.852-3.368A6.602 6.602 0 0 1 39.818.932C40.823.31 41.938 0 43.16 0c1.246 0 2.354.3 3.327.9a6.608 6.608 0 0 1 2.342 2.435c.59 1.014.885 2.147.885 3.4v1.537c0 .088-.044.131-.13.131h-3.77c-.087 0-.13-.043-.13-.13V6.735c0-.741-.24-1.379-.721-1.913a2.324 2.324 0 0 0-1.803-.801c-.797 0-1.409.272-1.835.817a2.992 2.992 0 0 0-.639 1.897v10.447c0 .817.24 1.487.721 2.01.48.513 1.065.769 1.753.769.721 0 1.322-.284 1.803-.85.48-.578.72-1.221.72-1.93V15.63c0-.087.044-.13.132-.13h3.8c.088 0 .132.043.132.13v1.554c0 1.253-.295 2.397-.885 3.433a7.154 7.154 0 0 1-2.376 2.468c-.983.61-2.091.916-3.326.916Zm6.966-.49L54.287.506c.022-.087.077-.131.164-.131h4.866c.088 0 .142.044.164.13l3.998 23.003c.01.11-.033.164-.131.164h-3.72c-.109 0-.169-.054-.18-.163l-.36-2.453h-4.571l-.36 2.453c-.012.108-.066.163-.165.163h-3.735c-.088 0-.131-.054-.131-.163ZM57.04 8.075l-.197-1.242-.147 1.242-1.508 9.4h3.228l-1.376-9.4Zm11.536 15.598h-3.801c-.087 0-.131-.054-.131-.163L64.709.506c0-.087.044-.131.132-.131h6.783c1.212 0 2.326.294 3.342.883a6.735 6.735 0 0 1 2.425 2.37c.612.992.917 2.115.917 3.368 0 .818-.125 1.559-.376 2.224-.252.665-.547 1.226-.885 1.684-.328.457-.628.795-.901 1.013 1.212 1.34 1.818 2.916 1.818 4.725l.033 6.866c0 .11-.055.164-.164.164h-3.8c-.088 0-.132-.033-.132-.098v-6.932c0-.807-.284-1.504-.852-2.093-.568-.588-1.267-.882-2.097-.882H68.74l-.033 9.841c0 .11-.043.164-.13.164Zm3.048-19.292H68.74v5.265h2.884c.688 0 1.3-.256 1.835-.769a2.479 2.479 0 0 0 .819-1.88c0-.708-.262-1.319-.787-1.83-.524-.524-1.147-.786-1.867-.786Zm19.253 19.292H80.031c-.088 0-.132-.054-.132-.163L79.933.506c0-.087.044-.131.131-.131h10.781c.088 0 .131.055.131.164v3.743c0 .088-.043.131-.13.131h-6.882v5.232h6.881c.088 0 .131.043.131.13l.033 3.793c0 .088-.044.131-.131.131h-6.914v5.853h6.914c.087 0 .131.055.131.164v3.825c0 .087-.044.131-.131.131Zm13.158 0H93.189c-.087 0-.131-.054-.131-.163L93.09.54c0-.11.054-.164.163-.164h3.736c.11 0 .164.055.164.164l-.033 19.013h6.914c.11 0 .164.055.164.164v3.793c0 .108-.054.163-.164.163Zm7.637.327a6.227 6.227 0 0 1-3.293-.916 7.14 7.14 0 0 1-2.408-2.436 6.536 6.536 0 0 1-.902-3.367l.033-10.61c0-1.243.301-2.36.901-3.352a6.74 6.74 0 0 1 2.392-2.403A6.2 6.2 0 0 1 111.672 0c1.224 0 2.321.3 3.294.9a6.779 6.779 0 0 1 2.359 2.419c.601 1.003.901 2.12.901 3.351l.033 10.61c0 1.221-.295 2.338-.885 3.352a6.964 6.964 0 0 1-2.392 2.452c-.994.61-2.097.916-3.31.916Zm0-4.038c.678 0 1.267-.273 1.77-.818.502-.555.753-1.177.753-1.863l-.032-10.61c0-.742-.235-1.369-.705-1.88-.469-.513-1.065-.77-1.786-.77-.688 0-1.278.251-1.769.753-.492.501-.737 1.133-.737 1.896v10.61c0 .73.245 1.363.737 1.897.491.523 1.081.785 1.769.785ZM126.076 24a6.225 6.225 0 0 1-3.293-.916 7.152 7.152 0 0 1-2.409-2.436 6.536 6.536 0 0 1-.901-3.367l.033-10.61c0-1.243.3-2.36.901-3.352a6.732 6.732 0 0 1 2.392-2.403A6.197 6.197 0 0 1 126.076 0c1.223 0 2.321.3 3.293.9a6.773 6.773 0 0 1 2.36 2.419c.6 1.003.901 2.12.901 3.351l.032 10.61c0 1.221-.295 2.338-.884 3.352a6.964 6.964 0 0 1-2.392 2.452c-.994.61-2.098.916-3.31.916Zm0-4.038c.677 0 1.267-.273 1.769-.818.503-.555.754-1.177.754-1.863l-.033-10.61c0-.742-.235-1.369-.704-1.88-.47-.513-1.065-.77-1.786-.77-.688 0-1.278.251-1.77.753-.491.501-.737 1.133-.737 1.896v10.61c0 .73.246 1.363.737 1.897.492.523 1.082.785 1.77.785Zm12.126 3.711h-3.768c-.109 0-.164-.054-.164-.163l.065-23.003c0-.087.044-.131.132-.131h6.455c2.053 0 3.675.627 4.866 1.88 1.202 1.243 1.802 2.937 1.802 5.085 0 1.57-.311 2.937-.934 4.103-.633 1.155-1.452 2.05-2.457 2.681a6.037 6.037 0 0 1-3.277.949h-2.556v8.435c0 .11-.055.164-.164.164Zm2.72-19.324-2.556.032v6.638h2.556c.71 0 1.327-.338 1.851-1.014.525-.686.787-1.574.787-2.664 0-.872-.235-1.586-.705-2.142-.469-.567-1.114-.85-1.933-.85Z"/></svg>