<svg xmlns="http://www.w3.org/2000/svg" width="315" height="334" fill="none"><path fill="#344A41" d="M107.653 29.209C107.311 13.293 120.05 0 135.888 0h42.853c16.078 0 29.004 13.507 28.638 29.663-.508 22.46 23.839 37.01 42.969 25.392 13.602-8.262 31.304-3.663 39.22 10.189l21.493 37.609c7.963 13.934 2.798 31.729-11.371 39.174-19.921 10.467-20.205 39.024-.496 49.89l.9.496c14.051 7.747 19.07 25.557 11.148 39.559l-21.589 38.156c-7.921 14.001-25.945 18.505-39.552 9.998-19.035-11.9-43.773 2.232-43.022 24.751.531 15.924-12.168 29.123-28.02 29.123h-42.517c-16.14 0-29.07-13.501-28.535-29.715.75-22.733-23.918-37.323-43.243-25.488-13.624 8.345-31.41 3.801-39.418-10.07l-21.28-36.861c-8.04-13.929-2.924-31.902 11.084-39.719 19.605-10.94 19.712-39.595-.108-50.137-14.04-7.467-19.196-25.098-11.409-39.014l21.884-39.107c7.841-14.012 25.763-18.56 39.282-9.97 18.832 11.968 43.334-2.321 42.854-24.71Z"/></svg>